<?xml version="1.0" encoding="UTF-8"?>
<svg xmlns="http://www.w3.org/2000/svg" version="1.1" viewBox="0 0 512 512">
  <defs>
    <style>
      .cls-1 {
        fill: #d4ad00;
        fill-rule: evenodd;
      }

      .cls-1, .cls-2, .cls-3 {
        stroke-width: 0px;
      }

      .cls-2 {
        fill: #00df38;
      }

      .cls-4 {
        display: none;
      }

      .cls-3 {
        fill: #e37c00;
      }
    </style>
  </defs>
  <g id="bg_for_drawing" data-name="bg for drawing" class="cls-4">
    <rect class="cls-2" x="-20.5" y="-7.5" width="580" height="526"/>
  </g>
  <g id="Layer_1" data-name="Layer 1">
    <path id="ring" class="cls-1" d="M10.8,355.1c19,47.1,144.3,40.9,279.7-13.8,135.4-54.7,229.8-137.3,210.8-184.4-19-47.1-144.3-40.9-279.7,13.8C86.1,225.4-8.3,308,10.8,355.1M74.7,329.2c-13.1-32.4,57.5-91.4,157.6-131.9,100.1-40.4,191.9-47,205-14.6,13.1,32.4-57.5,91.4-157.6,131.9-100.1,40.4-191.9,47-205,14.6"/>
    <g id="planet">
      <path class="cls-3" d="M232.3,197.4c-59.3,24-108.3,54.5-135.6,82.1,3.8,26,13.8,49.9,28.4,70.3,38.8.9,95.2-11.2,154.6-35.1,59.3-24,108.3-54.5,135.6-82.1-3.8-26-13.8-49.9-28.4-70.3-38.8-.9-95.2,11.2-154.6,35.1Z"/>
      <path class="cls-3" d="M357.5,131c-27.7-22.5-63-36-101.5-36-82.4,0-150.3,61.8-159.8,141.6,34.5-23.6,77.3-46.5,125.4-65.9,48-19.4,94.8-32.7,135.9-39.7Z"/>
      <path class="cls-3" d="M154.5,381c27.7,22.5,63,36,101.5,36,82.4,0,150.3-61.8,159.8-141.6-34.5,23.6-77.3,46.5-125.4,65.9-48,19.4-94.8,32.7-135.9,39.7Z"/>
      <path class="cls-3" d="M96.7,279.5c27.3-27.6,76.3-58.1,135.6-82.1,59.3-24,115.7-36,154.6-35.1-8.4-11.7-18.3-22.2-29.4-31.2-41.2,7-87.9,20.3-135.9,39.7-48,19.4-90.9,42.3-125.4,65.9-.8,6.4-1.2,12.8-1.2,19.4s.6,15.8,1.7,23.5Z"/>
    </g>
  </g>
</svg>